<svg width="320" height="130" viewBox="0 0 229 201" fill="none" xmlns="http://www.w3.org/2000/svg">
<path d="M181.292 0H47.7083C35.06 0.0145072 22.9339 4.83206 13.9902 13.3959C5.04642 21.9598 0.0151508 33.5707 0 45.6818L0 155.318C0.0151508 167.429 5.04642 179.04 13.9902 187.604C22.9339 196.168 35.06 200.985 47.7083 201H181.292C193.94 200.985 206.066 196.168 215.01 187.604C223.954 179.04 228.985 167.429 229 155.318V45.6818C228.985 33.5707 223.954 21.9598 215.01 13.3959C206.066 4.83206 193.94 0.0145072 181.292 0ZM47.7083 18.2727H181.292C188.883 18.2727 196.164 21.1605 201.533 26.3007C206.901 31.4409 209.917 38.4125 209.917 45.6818V54.8182H19.0833V45.6818C19.0833 38.4125 22.0992 31.4409 27.4674 26.3007C32.8356 21.1605 40.1165 18.2727 47.7083 18.2727ZM181.292 182.727H47.7083C40.1165 182.727 32.8356 179.84 27.4674 174.699C22.0992 169.559 19.0833 162.588 19.0833 155.318V73.0909H209.917V155.318C209.917 162.588 206.901 169.559 201.533 174.699C196.164 179.84 188.883 182.727 181.292 182.727ZM181.292 109.636C181.292 112.059 180.286 114.383 178.497 116.097C176.708 117.81 174.281 118.773 171.75 118.773H57.25C54.7194 118.773 52.2924 117.81 50.503 116.097C48.7136 114.383 47.7083 112.059 47.7083 109.636C47.7083 107.213 48.7136 104.889 50.503 103.176C52.2924 101.463 54.7194 100.5 57.25 100.5H171.75C174.281 100.5 176.708 101.463 178.497 103.176C180.286 104.889 181.292 107.213 181.292 109.636ZM143.125 146.182C143.125 148.605 142.12 150.929 140.33 152.642C138.541 154.356 136.114 155.318 133.583 155.318H57.25C54.7194 155.318 52.2924 154.356 50.503 152.642C48.7136 150.929 47.7083 148.605 47.7083 146.182C47.7083 143.759 48.7136 141.435 50.503 139.721C52.2924 138.008 54.7194 137.045 57.25 137.045H133.583C136.114 137.045 138.541 138.008 140.33 139.721C142.12 141.435 143.125 143.759 143.125 146.182ZM28.625 36.5455C28.625 34.7385 29.1846 32.972 30.2331 31.4696C31.2815 29.9671 32.7717 28.7961 34.5152 28.1046C36.2587 27.413 38.1773 27.2321 40.0282 27.5846C41.8791 27.9372 43.5792 28.8073 44.9136 30.0851C46.2481 31.3628 47.1568 32.9908 47.525 34.763C47.8932 36.5353 47.7042 38.3723 46.982 40.0418C46.2598 41.7112 45.0368 43.1381 43.4677 44.1421C41.8986 45.146 40.0538 45.6818 38.1667 45.6818C35.6361 45.6818 33.2091 44.7192 31.4197 43.0058C29.6303 41.2924 28.625 38.9686 28.625 36.5455ZM57.25 36.5455C57.25 34.7385 57.8096 32.972 58.8581 31.4696C59.9065 29.9671 61.3967 28.7961 63.1402 28.1046C64.8838 27.413 66.8023 27.2321 68.6532 27.5846C70.5041 27.9372 72.2042 28.8073 73.5386 30.0851C74.8731 31.3628 75.7818 32.9908 76.15 34.763C76.5182 36.5353 76.3292 38.3723 75.607 40.0418C74.8848 41.7112 73.6618 43.1381 72.0927 44.1421C70.5236 45.146 68.6788 45.6818 66.7917 45.6818C64.2611 45.6818 61.8341 44.7192 60.0447 43.0058C58.2553 41.2924 57.25 38.9686 57.25 36.5455ZM85.875 36.5455C85.875 34.7385 86.4346 32.972 87.4831 31.4696C88.5315 29.9671 90.0217 28.7961 91.7652 28.1046C93.5087 27.413 95.4273 27.2321 97.2782 27.5846C99.1291 27.9372 100.829 28.8073 102.164 30.0851C103.498 31.3628 104.407 32.9908 104.775 34.763C105.143 36.5353 104.954 38.3723 104.232 40.0418C103.51 41.7112 102.287 43.1381 100.718 44.1421C99.1486 45.146 97.3038 45.6818 95.4167 45.6818C92.8861 45.6818 90.4591 44.7192 88.6697 43.0058C86.8803 41.2924 85.875 38.9686 85.875 36.5455Z" fill="#5C5C5C"/>
</svg>
