<svg width="32" height="32" viewBox="0 0 233 235" fill="none" xmlns="http://www.w3.org/2000/svg">
<path d="M145.887 235H87.113V200.602C76.8986 196.989 67.4379 191.526 59.2051 184.485L29.387 201.708L0 150.792L29.8082 133.607C27.8502 122.958 27.8502 112.042 29.8082 101.393L0 84.2083L29.387 33.2917L59.2051 50.5152C67.4379 43.4743 76.8986 38.0106 87.113 34.3981V0H145.887V34.3981C156.101 38.0106 165.562 43.4743 173.795 50.5152L203.613 33.2917L233 84.2083L203.192 101.393C205.15 112.042 205.15 122.958 203.192 133.607L233 150.792L203.613 201.708L173.795 184.495C165.561 191.532 156.101 196.992 145.887 200.602V235ZM106.704 215.417H126.296V185.777L133.652 183.878C145.721 180.753 156.705 174.391 165.42 165.479L170.739 160.064L196.433 174.899L206.228 157.94L180.564 143.125L182.582 135.82C185.899 123.805 185.899 111.116 182.582 99.1015L180.564 91.7969L206.228 76.9821L196.433 60.0229L170.739 74.8965L165.42 69.5208C156.701 60.6236 145.716 54.2754 133.652 51.1615L126.296 49.2227V19.5833H106.704V49.2227L99.3478 51.1223C87.2794 54.2473 76.2947 60.6093 67.5804 69.5208L62.2613 74.9356L36.5673 60.0621L26.7716 77.0213L52.4363 91.836L50.4184 99.1406C47.1011 111.156 47.1011 123.844 50.4184 135.859L52.4363 143.164L26.7716 157.979L36.5673 174.938L62.2613 160.104L67.5804 165.518C76.2994 174.416 87.2837 180.764 99.3478 183.878L106.704 185.777V215.417ZM116.5 156.667C108.75 156.667 101.175 154.37 94.7313 150.066C88.2877 145.762 83.2655 139.645 80.2999 132.488C77.3342 125.332 76.5583 117.457 78.0702 109.859C79.582 102.261 83.3138 95.2825 88.7936 89.805C94.2734 84.3274 101.255 80.5972 108.856 79.0859C116.457 77.5747 124.335 78.3503 131.495 81.3147C138.654 84.2792 144.774 89.2992 149.079 95.7402C153.385 102.181 155.683 109.754 155.683 117.5C155.683 127.888 151.555 137.85 144.206 145.195C136.858 152.54 126.892 156.667 116.5 156.667ZM116.5 97.9167C112.625 97.9167 108.837 99.0652 105.616 101.217C102.394 103.369 99.8828 106.427 98.3999 110.006C96.9171 113.584 96.5291 117.522 97.2851 121.321C98.041 125.119 99.9069 128.609 102.647 131.348C105.387 134.086 108.878 135.951 112.678 136.707C116.478 137.463 120.417 137.075 123.997 135.593C127.577 134.11 130.637 131.6 132.79 128.38C134.942 125.159 136.091 121.373 136.091 117.5C136.091 112.306 134.027 107.325 130.353 103.652C126.679 99.9799 121.696 97.9167 116.5 97.9167Z" fill="#5C5C5C"/>
</svg>
