<svg width="32" height="32" viewBox="0 0 56 56" fill="none" xmlns="http://www.w3.org/2000/svg">
<path d="M28 0C31.7917 0 35.4056 0.756449 38.7096 2.12353L38.7598 2.14631C42.1641 3.56351 45.2311 5.63691 47.7969 8.20701C50.3763 10.7817 52.4544 13.8667 53.8763 17.2981C55.2481 20.5973 56 24.2155 56 28.0023C56 31.7936 55.2435 35.4073 53.8763 38.711L53.8535 38.7612C52.4316 42.1652 50.3626 45.232 47.7923 47.7975C45.2175 50.3768 42.1322 52.4547 38.7005 53.8765C35.401 55.2481 31.7826 56 27.9954 56C24.2083 56 20.5898 55.2436 17.2858 53.8765L17.2357 53.8537C13.8314 52.4365 10.7643 50.3631 8.19857 47.7975L8.20312 47.7884C5.6237 45.2092 3.54557 42.1287 2.1237 38.7065C0.75651 35.4027 0 31.7891 0 27.9977C0 24.2064 0.75651 20.5927 2.1237 17.289L2.14648 17.2388C3.5638 13.8348 5.63737 10.768 8.20312 8.20246H8.20768C10.7871 5.62324 13.8678 3.54528 17.2949 2.12353C20.5944 0.756449 24.2083 0 28 0ZM7.74284 43.0492L7.85221 42.9854C10.541 41.4862 17.541 40.9895 20.4486 38.9617C20.6628 38.6427 20.8906 38.1779 21.1139 37.6721C21.4466 36.9111 21.752 36.0771 21.9434 35.5121C21.1322 34.5551 20.4349 33.4751 19.7695 32.4134L17.5684 28.9091C16.7663 27.7061 16.347 26.6124 16.3197 25.7101C16.306 25.2864 16.3789 24.9036 16.5384 24.5618C16.7025 24.2064 16.9531 23.9102 17.2949 23.6823C17.4544 23.573 17.6322 23.4818 17.8281 23.4135C17.6823 21.5132 17.6322 19.1208 17.7233 17.1158C17.7689 16.6419 17.8646 16.1634 17.9922 15.6895C18.5573 13.6799 19.9655 12.0622 21.7109 10.9503C22.6725 10.3351 23.7298 9.87485 24.8281 9.56498C25.5299 9.36447 24.2311 7.13158 24.9557 7.05411C28.4512 6.69412 34.1068 9.88852 36.5495 12.527C37.7708 13.8485 38.541 15.6029 38.7051 17.9224L38.5684 23.6367C39.179 23.8236 39.571 24.2109 39.7259 24.8352C39.9036 25.5324 39.7122 26.5076 39.1198 27.8428C39.1107 27.8656 39.097 27.8929 39.0833 27.9157L36.5723 32.0488C35.6517 33.5663 34.7129 35.0928 33.4961 36.2913C33.61 36.4554 33.724 36.6149 33.8333 36.7743C34.3301 37.5035 34.8314 38.2326 35.474 38.8842C35.4967 38.907 35.515 38.9298 35.5286 38.9526C38.418 40.9941 45.4499 41.4908 48.1478 42.9945L48.2572 43.0583C51.388 38.8569 53.2383 33.6483 53.2383 28.0068C53.2383 21.0393 50.4128 14.728 45.8464 10.1665C41.2891 5.5959 34.9772 2.77061 28.0091 2.77061C21.041 2.77061 14.7292 5.5959 10.1673 10.1619C5.5918 14.7189 2.76628 21.0302 2.76628 27.9977C2.76628 33.6392 4.61654 38.8478 7.74284 43.0492Z" fill="#515050"/>
</svg>
