<svg width="56" height="56" viewBox="0 0 192 304" fill="none" xmlns="http://www.w3.org/2000/svg">
<path d="M0 258.66C0 261.026 1.01014 263.295 2.80821 264.967C4.60627 266.64 7.04499 267.58 9.58784 267.58C12.1307 267.58 14.5694 266.64 16.3675 264.967C18.1655 263.295 19.1757 261.026 19.1757 258.66C19.1757 256.295 18.1655 254.026 16.3675 252.354C14.5694 250.681 12.1307 249.741 9.58784 249.741C7.04499 249.741 4.60627 250.681 2.80821 252.354C1.01014 254.026 0 256.295 0 258.66ZM0 240.822C0 243.187 1.01014 245.456 2.80821 247.129C4.60627 248.801 7.04499 249.741 9.58784 249.741C12.1307 249.741 14.5694 248.801 16.3675 247.129C18.1655 245.456 19.1757 243.187 19.1757 240.822C19.1757 238.456 18.1655 236.188 16.3675 234.515C14.5694 232.842 12.1307 231.903 9.58784 231.903C7.04499 231.903 4.60627 232.842 2.80821 234.515C1.01014 236.188 0 238.456 0 240.822ZM19.1757 276.499C19.1757 278.865 20.1858 281.133 21.9839 282.806C23.7819 284.479 26.2207 285.418 28.7635 285.418C31.3064 285.418 33.7451 284.479 35.5431 282.806C37.3412 281.133 38.3514 278.865 38.3514 276.499C38.3514 274.134 37.3412 271.865 35.5431 270.192C33.7451 268.52 31.3064 267.58 28.7635 267.58C26.2207 267.58 23.7819 268.52 21.9839 270.192C20.1858 271.865 19.1757 274.134 19.1757 276.499ZM19.1757 258.66C19.1757 261.026 20.1858 263.295 21.9839 264.967C23.7819 266.64 26.2207 267.58 28.7635 267.58C31.3064 267.58 33.7451 266.64 35.5431 264.967C37.3412 263.295 38.3514 261.026 38.3514 258.66C38.3514 256.295 37.3412 254.026 35.5431 252.354C33.7451 250.681 31.3064 249.741 28.7635 249.741C26.2207 249.741 23.7819 250.681 21.9839 252.354C20.1858 254.026 19.1757 256.295 19.1757 258.66ZM19.1757 240.822C19.1757 243.187 20.1858 245.456 21.9839 247.129C23.7819 248.801 26.2207 249.741 28.7635 249.741C31.3064 249.741 33.7451 248.801 35.5431 247.129C37.3412 245.456 38.3514 243.187 38.3514 240.822C38.3514 238.456 37.3412 236.188 35.5431 234.515C33.7451 232.842 31.3064 231.903 28.7635 231.903C26.2207 231.903 23.7819 232.842 21.9839 234.515C20.1858 236.188 19.1757 238.456 19.1757 240.822ZM19.1757 222.983C19.1757 225.349 20.1858 227.617 21.9839 229.29C23.7819 230.963 26.2207 231.903 28.7635 231.903C31.3064 231.903 33.7451 230.963 35.5431 229.29C37.3412 227.617 38.3514 225.349 38.3514 222.983C38.3514 220.618 37.3412 218.349 35.5431 216.676C33.7451 215.004 31.3064 214.064 28.7635 214.064C26.2207 214.064 23.7819 215.004 21.9839 216.676C20.1858 218.349 19.1757 220.618 19.1757 222.983ZM19.1757 205.145C19.1757 207.51 20.1858 209.779 21.9839 211.451C23.7819 213.124 26.2207 214.064 28.7635 214.064C31.3064 214.064 33.7451 213.124 35.5431 211.451C37.3412 209.779 38.3514 207.51 38.3514 205.145C38.3514 202.779 37.3412 200.51 35.5431 198.838C33.7451 197.165 31.3064 196.225 28.7635 196.225C26.2207 196.225 23.7819 197.165 21.9839 198.838C20.1858 200.51 19.1757 202.779 19.1757 205.145ZM19.1757 187.306C19.1757 189.671 20.1858 191.94 21.9839 193.613C23.7819 195.285 26.2207 196.225 28.7635 196.225C31.3064 196.225 33.7451 195.285 35.5431 193.613C37.3412 191.94 38.3514 189.671 38.3514 187.306C38.3514 184.94 37.3412 182.672 35.5431 180.999C33.7451 179.326 31.3064 178.387 28.7635 178.387C26.2207 178.387 23.7819 179.326 21.9839 180.999C20.1858 182.672 19.1757 184.94 19.1757 187.306ZM19.1757 169.467C19.1757 171.833 20.1858 174.101 21.9839 175.774C23.7819 177.447 26.2207 178.387 28.7635 178.387C31.3064 178.387 33.7451 177.447 35.5431 175.774C37.3412 174.101 38.3514 171.833 38.3514 169.467C38.3514 167.102 37.3412 164.833 35.5431 163.16C33.7451 161.488 31.3064 160.548 28.7635 160.548C26.2207 160.548 23.7819 161.488 21.9839 163.16C20.1858 164.833 19.1757 167.102 19.1757 169.467ZM19.1757 151.629C19.1757 153.994 20.1858 156.263 21.9839 157.935C23.7819 159.608 26.2207 160.548 28.7635 160.548C31.3064 160.548 33.7451 159.608 35.5431 157.935C37.3412 156.263 38.3514 153.994 38.3514 151.629C38.3514 149.263 37.3412 146.994 35.5431 145.322C33.7451 143.649 31.3064 142.709 28.7635 142.709C26.2207 142.709 23.7819 143.649 21.9839 145.322C20.1858 146.994 19.1757 149.263 19.1757 151.629ZM19.1757 133.79C19.1757 136.155 20.1858 138.424 21.9839 140.097C23.7819 141.769 26.2207 142.709 28.7635 142.709C31.3064 142.709 33.7451 141.769 35.5431 140.097C37.3412 138.424 38.3514 136.155 38.3514 133.79C38.3514 131.424 37.3412 129.156 35.5431 127.483C33.7451 125.81 31.3064 124.871 28.7635 124.871C26.2207 124.871 23.7819 125.81 21.9839 127.483C20.1858 129.156 19.1757 131.424 19.1757 133.79ZM19.1757 98.1126C19.1757 100.478 20.1858 102.747 21.9839 104.419C23.7819 106.092 26.2207 107.032 28.7635 107.032C31.3064 107.032 33.7451 106.092 35.5431 104.419C37.3412 102.747 38.3514 100.478 38.3514 98.1126C38.3514 95.747 37.3412 93.4784 35.5431 91.8057C33.7451 90.133 31.3064 89.1933 28.7635 89.1933C26.2207 89.1933 23.7819 90.133 21.9839 91.8057C20.1858 93.4784 19.1757 95.747 19.1757 98.1126ZM38.3514 294.338C38.3514 296.703 39.3615 298.972 41.1596 300.645C42.9576 302.317 45.3963 303.257 47.9392 303.257C50.482 303.257 52.9208 302.317 54.7188 300.645C56.5169 298.972 57.527 296.703 57.527 294.338C57.527 291.972 56.5169 289.704 54.7188 288.031C52.9208 286.358 50.482 285.418 47.9392 285.418C45.3963 285.418 42.9576 286.358 41.1596 288.031C39.3615 289.704 38.3514 291.972 38.3514 294.338ZM38.3514 258.66C38.3514 261.026 39.3615 263.295 41.1596 264.967C42.9576 266.64 45.3963 267.58 47.9392 267.58C50.482 267.58 52.9208 266.64 54.7188 264.967C56.5169 263.295 57.527 261.026 57.527 258.66C57.527 256.295 56.5169 254.026 54.7188 252.354C52.9208 250.681 50.482 249.741 47.9392 249.741C45.3963 249.741 42.9576 250.681 41.1596 252.354C39.3615 254.026 38.3514 256.295 38.3514 258.66ZM38.3514 240.822C38.3514 243.187 39.3615 245.456 41.1596 247.129C42.9576 248.801 45.3963 249.741 47.9392 249.741C50.482 249.741 52.9208 248.801 54.7188 247.129C56.5169 245.456 57.527 243.187 57.527 240.822C57.527 238.456 56.5169 236.188 54.7188 234.515C52.9208 232.842 50.482 231.903 47.9392 231.903C45.3963 231.903 42.9576 232.842 41.1596 234.515C39.3615 236.188 38.3514 238.456 38.3514 240.822ZM38.3514 222.983C38.3514 225.349 39.3615 227.617 41.1596 229.29C42.9576 230.963 45.3963 231.903 47.9392 231.903C50.482 231.903 52.9208 230.963 54.7188 229.29C56.5169 227.617 57.527 225.349 57.527 222.983C57.527 220.618 56.5169 218.349 54.7188 216.676C52.9208 215.004 50.482 214.064 47.9392 214.064C45.3963 214.064 42.9576 215.004 41.1596 216.676C39.3615 218.349 38.3514 220.618 38.3514 222.983ZM38.3514 205.145C38.3514 207.51 39.3615 209.779 41.1596 211.451C42.9576 213.124 45.3963 214.064 47.9392 214.064C50.482 214.064 52.9208 213.124 54.7188 211.451C56.5169 209.779 57.527 207.51 57.527 205.145C57.527 202.779 56.5169 200.51 54.7188 198.838C52.9208 197.165 50.482 196.225 47.9392 196.225C45.3963 196.225 42.9576 197.165 41.1596 198.838C39.3615 200.51 38.3514 202.779 38.3514 205.145ZM38.3514 187.306C38.3514 189.671 39.3615 191.94 41.1596 193.613C42.9576 195.285 45.3963 196.225 47.9392 196.225C50.482 196.225 52.9208 195.285 54.7188 193.613C56.5169 191.94 57.527 189.671 57.527 187.306C57.527 184.94 56.5169 182.672 54.7188 180.999C52.9208 179.326 50.482 178.387 47.9392 178.387C45.3963 178.387 42.9576 179.326 41.1596 180.999C39.3615 182.672 38.3514 184.94 38.3514 187.306ZM38.3514 169.467C38.3514 171.833 39.3615 174.101 41.1596 175.774C42.9576 177.447 45.3963 178.387 47.9392 178.387C50.482 178.387 52.9208 177.447 54.7188 175.774C56.5169 174.101 57.527 171.833 57.527 169.467C57.527 167.102 56.5169 164.833 54.7188 163.16C52.9208 161.488 50.482 160.548 47.9392 160.548C45.3963 160.548 42.9576 161.488 41.1596 163.16C39.3615 164.833 38.3514 167.102 38.3514 169.467ZM38.3514 151.629C38.3514 153.994 39.3615 156.263 41.1596 157.935C42.9576 159.608 45.3963 160.548 47.9392 160.548C50.482 160.548 52.9208 159.608 54.7188 157.935C56.5169 156.263 57.527 153.994 57.527 151.629C57.527 149.263 56.5169 146.994 54.7188 145.322C52.9208 143.649 50.482 142.709 47.9392 142.709C45.3963 142.709 42.9576 143.649 41.1596 145.322C39.3615 146.994 38.3514 149.263 38.3514 151.629ZM38.3514 133.79C38.3514 136.155 39.3615 138.424 41.1596 140.097C42.9576 141.769 45.3963 142.709 47.9392 142.709C50.482 142.709 52.9208 141.769 54.7188 140.097C56.5169 138.424 57.527 136.155 57.527 133.79C57.527 131.424 56.5169 129.156 54.7188 127.483C52.9208 125.81 50.482 124.871 47.9392 124.871C45.3963 124.871 42.9576 125.81 41.1596 127.483C39.3615 129.156 38.3514 131.424 38.3514 133.79ZM38.3514 115.951C38.3514 118.317 39.3615 120.585 41.1596 122.258C42.9576 123.931 45.3963 124.871 47.9392 124.871C50.482 124.871 52.9208 123.931 54.7188 122.258C56.5169 120.585 57.527 118.317 57.527 115.951C57.527 113.586 56.5169 111.317 54.7188 109.644C52.9208 107.972 50.482 107.032 47.9392 107.032C45.3963 107.032 42.9576 107.972 41.1596 109.644C39.3615 111.317 38.3514 113.586 38.3514 115.951ZM38.3514 98.1126C38.3514 100.478 39.3615 102.747 41.1596 104.419C42.9576 106.092 45.3963 107.032 47.9392 107.032C50.482 107.032 52.9208 106.092 54.7188 104.419C56.5169 102.747 57.527 100.478 57.527 98.1126C57.527 95.747 56.5169 93.4784 54.7188 91.8057C52.9208 90.133 50.482 89.1933 47.9392 89.1933C45.3963 89.1933 42.9576 90.133 41.1596 91.8057C39.3615 93.4784 38.3514 95.747 38.3514 98.1126ZM38.3514 80.2739C38.3514 82.6395 39.3615 84.9082 41.1596 86.5808C42.9576 88.2535 45.3963 89.1933 47.9392 89.1933C50.482 89.1933 52.9208 88.2535 54.7188 86.5808C56.5169 84.9082 57.527 82.6395 57.527 80.2739C57.527 77.9084 56.5169 75.6397 54.7188 73.967C52.9208 72.2943 50.482 71.3546 47.9392 71.3546C45.3963 71.3546 42.9576 72.2943 41.1596 73.967C39.3615 75.6397 38.3514 77.9084 38.3514 80.2739ZM38.3514 62.4353C38.3514 64.8008 39.3615 67.0695 41.1596 68.7422C42.9576 70.4149 45.3963 71.3546 47.9392 71.3546C50.482 71.3546 52.9208 70.4149 54.7188 68.7422C56.5169 67.0695 57.527 64.8008 57.527 62.4353C57.527 60.0697 56.5169 57.8011 54.7188 56.1284C52.9208 54.4557 50.482 53.5159 47.9392 53.5159C45.3963 53.5159 42.9576 54.4557 41.1596 56.1284C39.3615 57.8011 38.3514 60.0697 38.3514 62.4353ZM38.3514 44.5966C38.3514 46.9622 39.3615 49.2309 41.1596 50.9035C42.9576 52.5762 45.3963 53.5159 47.9392 53.5159C50.482 53.5159 52.9208 52.5762 54.7188 50.9035C56.5169 49.2309 57.527 46.9622 57.527 44.5966C57.527 42.2311 56.5169 39.9624 54.7188 38.2897C52.9208 36.617 50.482 35.6773 47.9392 35.6773C45.3963 35.6773 42.9576 36.617 41.1596 38.2897C39.3615 39.9624 38.3514 42.2311 38.3514 44.5966ZM57.527 240.822C57.527 243.187 58.5372 245.456 60.3352 247.129C62.1333 248.801 64.572 249.741 67.1149 249.741C69.6577 249.741 72.0964 248.801 73.8945 247.129C75.6926 245.456 76.7027 243.187 76.7027 240.822C76.7027 238.456 75.6926 236.188 73.8945 234.515C72.0964 232.842 69.6577 231.903 67.1149 231.903C64.572 231.903 62.1333 232.842 60.3352 234.515C58.5372 236.188 57.527 238.456 57.527 240.822ZM57.527 205.145C57.527 207.51 58.5372 209.779 60.3352 211.451C62.1333 213.124 64.572 214.064 67.1149 214.064C69.6577 214.064 72.0964 213.124 73.8945 211.451C75.6926 209.779 76.7027 207.51 76.7027 205.145C76.7027 202.779 75.6926 200.51 73.8945 198.838C72.0964 197.165 69.6577 196.225 67.1149 196.225C64.572 196.225 62.1333 197.165 60.3352 198.838C58.5372 200.51 57.527 202.779 57.527 205.145ZM57.527 187.306C57.527 189.671 58.5372 191.94 60.3352 193.613C62.1333 195.285 64.572 196.225 67.1149 196.225C69.6577 196.225 72.0964 195.285 73.8945 193.613C75.6926 191.94 76.7027 189.671 76.7027 187.306C76.7027 184.94 75.6926 182.672 73.8945 180.999C72.0964 179.326 69.6577 178.387 67.1149 178.387C64.572 178.387 62.1333 179.326 60.3352 180.999C58.5372 182.672 57.527 184.94 57.527 187.306ZM57.527 169.467C57.527 171.833 58.5372 174.101 60.3352 175.774C62.1333 177.447 64.572 178.387 67.1149 178.387C69.6577 178.387 72.0964 177.447 73.8945 175.774C75.6926 174.101 76.7027 171.833 76.7027 169.467C76.7027 167.102 75.6926 164.833 73.8945 163.16C72.0964 161.488 69.6577 160.548 67.1149 160.548C64.572 160.548 62.1333 161.488 60.3352 163.16C58.5372 164.833 57.527 167.102 57.527 169.467ZM57.527 151.629C57.527 153.994 58.5372 156.263 60.3352 157.935C62.1333 159.608 64.572 160.548 67.1149 160.548C69.6577 160.548 72.0964 159.608 73.8945 157.935C75.6926 156.263 76.7027 153.994 76.7027 151.629C76.7027 149.263 75.6926 146.994 73.8945 145.322C72.0964 143.649 69.6577 142.709 67.1149 142.709C64.572 142.709 62.1333 143.649 60.3352 145.322C58.5372 146.994 57.527 149.263 57.527 151.629ZM57.527 133.79C57.527 136.155 58.5372 138.424 60.3352 140.097C62.1333 141.769 64.572 142.709 67.1149 142.709C69.6577 142.709 72.0964 141.769 73.8945 140.097C75.6926 138.424 76.7027 136.155 76.7027 133.79C76.7027 131.424 75.6926 129.156 73.8945 127.483C72.0964 125.81 69.6577 124.871 67.1149 124.871C64.572 124.871 62.1333 125.81 60.3352 127.483C58.5372 129.156 57.527 131.424 57.527 133.79ZM57.527 115.951C57.527 118.317 58.5372 120.585 60.3352 122.258C62.1333 123.931 64.572 124.871 67.1149 124.871C69.6577 124.871 72.0964 123.931 73.8945 122.258C75.6926 120.585 76.7027 118.317 76.7027 115.951C76.7027 113.586 75.6926 111.317 73.8945 109.644C72.0964 107.972 69.6577 107.032 67.1149 107.032C64.572 107.032 62.1333 107.972 60.3352 109.644C58.5372 111.317 57.527 113.586 57.527 115.951ZM57.527 98.1126C57.527 100.478 58.5372 102.747 60.3352 104.419C62.1333 106.092 64.572 107.032 67.1149 107.032C69.6577 107.032 72.0964 106.092 73.8945 104.419C75.6926 102.747 76.7027 100.478 76.7027 98.1126C76.7027 95.747 75.6926 93.4784 73.8945 91.8057C72.0964 90.133 69.6577 89.1933 67.1149 89.1933C64.572 89.1933 62.1333 90.133 60.3352 91.8057C58.5372 93.4784 57.527 95.747 57.527 98.1126ZM57.527 80.2739C57.527 82.6395 58.5372 84.9082 60.3352 86.5808C62.1333 88.2535 64.572 89.1933 67.1149 89.1933C69.6577 89.1933 72.0964 88.2535 73.8945 86.5808C75.6926 84.9082 76.7027 82.6395 76.7027 80.2739C76.7027 77.9084 75.6926 75.6397 73.8945 73.967C72.0964 72.2943 69.6577 71.3546 67.1149 71.3546C64.572 71.3546 62.1333 72.2943 60.3352 73.967C58.5372 75.6397 57.527 77.9084 57.527 80.2739ZM57.527 62.4353C57.527 64.8008 58.5372 67.0695 60.3352 68.7422C62.1333 70.4149 64.572 71.3546 67.1149 71.3546C69.6577 71.3546 72.0964 70.4149 73.8945 68.7422C75.6926 67.0695 76.7027 64.8008 76.7027 62.4353C76.7027 60.0697 75.6926 57.8011 73.8945 56.1284C72.0964 54.4557 69.6577 53.5159 67.1149 53.5159C64.572 53.5159 62.1333 54.4557 60.3352 56.1284C58.5372 57.8011 57.527 60.0697 57.527 62.4353ZM57.527 44.5966C57.527 46.9622 58.5372 49.2309 60.3352 50.9035C62.1333 52.5762 64.572 53.5159 67.1149 53.5159C69.6577 53.5159 72.0964 52.5762 73.8945 50.9035C75.6926 49.2309 76.7027 46.9622 76.7027 44.5966C76.7027 42.2311 75.6926 39.9624 73.8945 38.2897C72.0964 36.617 69.6577 35.6773 67.1149 35.6773C64.572 35.6773 62.1333 36.617 60.3352 38.2897C58.5372 39.9624 57.527 42.2311 57.527 44.5966ZM57.527 26.758C57.527 29.1235 58.5372 31.3922 60.3352 33.0649C62.1333 34.7376 64.572 35.6773 67.1149 35.6773C69.6577 35.6773 72.0964 34.7376 73.8945 33.0649C75.6926 31.3922 76.7027 29.1235 76.7027 26.758C76.7027 24.3924 75.6926 22.1238 73.8945 20.4511C72.0964 18.7784 69.6577 17.8386 67.1149 17.8386C64.572 17.8386 62.1333 18.7784 60.3352 20.4511C58.5372 22.1238 57.527 24.3924 57.527 26.758ZM57.527 8.91932C57.527 11.2849 58.5372 13.5535 60.3352 15.2262C62.1333 16.8989 64.572 17.8386 67.1149 17.8386C69.6577 17.8386 72.0964 16.8989 73.8945 15.2262C75.6926 13.5535 76.7027 11.2849 76.7027 8.91932C76.7027 6.55377 75.6926 4.2851 73.8945 2.6124C72.0964 0.939705 69.6577 0 67.1149 0C64.572 0 62.1333 0.939705 60.3352 2.6124C58.5372 4.2851 57.527 6.55377 57.527 8.91932ZM76.7027 169.467C76.7027 171.833 77.7128 174.101 79.5109 175.774C81.309 177.447 83.7477 178.387 86.2905 178.387C88.8334 178.387 91.2721 177.447 93.0702 175.774C94.8682 174.101 95.8784 171.833 95.8784 169.467C95.8784 167.102 94.8682 164.833 93.0702 163.16C91.2721 161.488 88.8334 160.548 86.2905 160.548C83.7477 160.548 81.309 161.488 79.5109 163.16C77.7128 164.833 76.7027 167.102 76.7027 169.467ZM76.7027 151.629C76.7027 153.994 77.7128 156.263 79.5109 157.935C81.309 159.608 83.7477 160.548 86.2905 160.548C88.8334 160.548 91.2721 159.608 93.0702 157.935C94.8682 156.263 95.8784 153.994 95.8784 151.629C95.8784 149.263 94.8682 146.994 93.0702 145.322C91.2721 143.649 88.8334 142.709 86.2905 142.709C83.7477 142.709 81.309 143.649 79.5109 145.322C77.7128 146.994 76.7027 149.263 76.7027 151.629ZM76.7027 133.79C76.7027 136.155 77.7128 138.424 79.5109 140.097C81.309 141.769 83.7477 142.709 86.2905 142.709C88.8334 142.709 91.2721 141.769 93.0702 140.097C94.8682 138.424 95.8784 136.155 95.8784 133.79C95.8784 131.424 94.8682 129.156 93.0702 127.483C91.2721 125.81 88.8334 124.871 86.2905 124.871C83.7477 124.871 81.309 125.81 79.5109 127.483C77.7128 129.156 76.7027 131.424 76.7027 133.79ZM76.7027 115.951C76.7027 118.317 77.7128 120.585 79.5109 122.258C81.309 123.931 83.7477 124.871 86.2905 124.871C88.8334 124.871 91.2721 123.931 93.0702 122.258C94.8682 120.585 95.8784 118.317 95.8784 115.951C95.8784 113.586 94.8682 111.317 93.0702 109.644C91.2721 107.972 88.8334 107.032 86.2905 107.032C83.7477 107.032 81.309 107.972 79.5109 109.644C77.7128 111.317 76.7027 113.586 76.7027 115.951ZM76.7027 98.1126C76.7027 100.478 77.7128 102.747 79.5109 104.419C81.309 106.092 83.7477 107.032 86.2905 107.032C88.8334 107.032 91.2721 106.092 93.0702 104.419C94.8682 102.747 95.8784 100.478 95.8784 98.1126C95.8784 95.747 94.8682 93.4784 93.0702 91.8057C91.2721 90.133 88.8334 89.1933 86.2905 89.1933C83.7477 89.1933 81.309 90.133 79.5109 91.8057C77.7128 93.4784 76.7027 95.747 76.7027 98.1126ZM76.7027 80.2739C76.7027 82.6395 77.7128 84.9082 79.5109 86.5808C81.309 88.2535 83.7477 89.1933 86.2905 89.1933C88.8334 89.1933 91.2721 88.2535 93.0702 86.5808C94.8682 84.9082 95.8784 82.6395 95.8784 80.2739C95.8784 77.9084 94.8682 75.6397 93.0702 73.967C91.2721 72.2943 88.8334 71.3546 86.2905 71.3546C83.7477 71.3546 81.309 72.2943 79.5109 73.967C77.7128 75.6397 76.7027 77.9084 76.7027 80.2739ZM76.7027 62.4353C76.7027 64.8008 77.7128 67.0695 79.5109 68.7422C81.309 70.4149 83.7477 71.3546 86.2905 71.3546C88.8334 71.3546 91.2721 70.4149 93.0702 68.7422C94.8682 67.0695 95.8784 64.8008 95.8784 62.4353C95.8784 60.0697 94.8682 57.8011 93.0702 56.1284C91.2721 54.4557 88.8334 53.5159 86.2905 53.5159C83.7477 53.5159 81.309 54.4557 79.5109 56.1284C77.7128 57.8011 76.7027 60.0697 76.7027 62.4353ZM76.7027 44.5966C76.7027 46.9622 77.7128 49.2309 79.5109 50.9035C81.309 52.5762 83.7477 53.5159 86.2905 53.5159C88.8334 53.5159 91.2721 52.5762 93.0702 50.9035C94.8682 49.2309 95.8784 46.9622 95.8784 44.5966C95.8784 42.2311 94.8682 39.9624 93.0702 38.2897C91.2721 36.617 88.8334 35.6773 86.2905 35.6773C83.7477 35.6773 81.309 36.617 79.5109 38.2897C77.7128 39.9624 76.7027 42.2311 76.7027 44.5966ZM76.7027 26.758C76.7027 29.1235 77.7128 31.3922 79.5109 33.0649C81.309 34.7376 83.7477 35.6773 86.2905 35.6773C88.8334 35.6773 91.2721 34.7376 93.0702 33.0649C94.8682 31.3922 95.8784 29.1235 95.8784 26.758C95.8784 24.3924 94.8682 22.1238 93.0702 20.4511C91.2721 18.7784 88.8334 17.8386 86.2905 17.8386C83.7477 17.8386 81.309 18.7784 79.5109 20.4511C77.7128 22.1238 76.7027 24.3924 76.7027 26.758ZM95.8784 151.629C95.8784 153.994 96.8885 156.263 98.6866 157.935C100.485 159.608 102.923 160.548 105.466 160.548C108.009 160.548 110.448 159.608 112.246 157.935C114.044 156.263 115.054 153.994 115.054 151.629C115.054 149.263 114.044 146.994 112.246 145.322C110.448 143.649 108.009 142.709 105.466 142.709C102.923 142.709 100.485 143.649 98.6866 145.322C96.8885 146.994 95.8784 149.263 95.8784 151.629ZM95.8784 133.79C95.8784 136.155 96.8885 138.424 98.6866 140.097C100.485 141.769 102.923 142.709 105.466 142.709C108.009 142.709 110.448 141.769 112.246 140.097C114.044 138.424 115.054 136.155 115.054 133.79C115.054 131.424 114.044 129.156 112.246 127.483C110.448 125.81 108.009 124.871 105.466 124.871C102.923 124.871 100.485 125.81 98.6866 127.483C96.8885 129.156 95.8784 131.424 95.8784 133.79ZM95.8784 115.951C95.8784 118.317 96.8885 120.585 98.6866 122.258C100.485 123.931 102.923 124.871 105.466 124.871C108.009 124.871 110.448 123.931 112.246 122.258C114.044 120.585 115.054 118.317 115.054 115.951C115.054 113.586 114.044 111.317 112.246 109.644C110.448 107.972 108.009 107.032 105.466 107.032C102.923 107.032 100.485 107.972 98.6866 109.644C96.8885 111.317 95.8784 113.586 95.8784 115.951ZM95.8784 98.1126C95.8784 100.478 96.8885 102.747 98.6866 104.419C100.485 106.092 102.923 107.032 105.466 107.032C108.009 107.032 110.448 106.092 112.246 104.419C114.044 102.747 115.054 100.478 115.054 98.1126C115.054 95.747 114.044 93.4784 112.246 91.8057C110.448 90.133 108.009 89.1933 105.466 89.1933C102.923 89.1933 100.485 90.133 98.6866 91.8057C96.8885 93.4784 95.8784 95.747 95.8784 98.1126ZM95.8784 80.2739C95.8784 82.6395 96.8885 84.9082 98.6866 86.5808C100.485 88.2535 102.923 89.1933 105.466 89.1933C108.009 89.1933 110.448 88.2535 112.246 86.5808C114.044 84.9082 115.054 82.6395 115.054 80.2739C115.054 77.9084 114.044 75.6397 112.246 73.967C110.448 72.2943 108.009 71.3546 105.466 71.3546C102.923 71.3546 100.485 72.2943 98.6866 73.967C96.8885 75.6397 95.8784 77.9084 95.8784 80.2739ZM95.8784 62.4353C95.8784 64.8008 96.8885 67.0695 98.6866 68.7422C100.485 70.4149 102.923 71.3546 105.466 71.3546C108.009 71.3546 110.448 70.4149 112.246 68.7422C114.044 67.0695 115.054 64.8008 115.054 62.4353C115.054 60.0697 114.044 57.8011 112.246 56.1284C110.448 54.4557 108.009 53.5159 105.466 53.5159C102.923 53.5159 100.485 54.4557 98.6866 56.1284C96.8885 57.8011 95.8784 60.0697 95.8784 62.4353ZM95.8784 44.5966C95.8784 46.9622 96.8885 49.2309 98.6866 50.9035C100.485 52.5762 102.923 53.5159 105.466 53.5159C108.009 53.5159 110.448 52.5762 112.246 50.9035C114.044 49.2309 115.054 46.9622 115.054 44.5966C115.054 42.2311 114.044 39.9624 112.246 38.2897C110.448 36.617 108.009 35.6773 105.466 35.6773C102.923 35.6773 100.485 36.617 98.6866 38.2897C96.8885 39.9624 95.8784 42.2311 95.8784 44.5966ZM95.8784 26.758C95.8784 29.1235 96.8885 31.3922 98.6866 33.0649C100.485 34.7376 102.923 35.6773 105.466 35.6773C108.009 35.6773 110.448 34.7376 112.246 33.0649C114.044 31.3922 115.054 29.1235 115.054 26.758C115.054 24.3924 114.044 22.1238 112.246 20.4511C110.448 18.7784 108.009 17.8386 105.466 17.8386C102.923 17.8386 100.485 18.7784 98.6866 20.4511C96.8885 22.1238 95.8784 24.3924 95.8784 26.758ZM115.054 151.629C115.054 153.994 116.064 156.263 117.862 157.935C119.66 159.608 122.099 160.548 124.642 160.548C127.185 160.548 129.623 159.608 131.422 157.935C133.22 156.263 134.23 153.994 134.23 151.629C134.23 149.263 133.22 146.994 131.422 145.322C129.623 143.649 127.185 142.709 124.642 142.709C122.099 142.709 119.66 143.649 117.862 145.322C116.064 146.994 115.054 149.263 115.054 151.629ZM115.054 133.79C115.054 136.155 116.064 138.424 117.862 140.097C119.66 141.769 122.099 142.709 124.642 142.709C127.185 142.709 129.623 141.769 131.422 140.097C133.22 138.424 134.23 136.155 134.23 133.79C134.23 131.424 133.22 129.156 131.422 127.483C129.623 125.81 127.185 124.871 124.642 124.871C122.099 124.871 119.66 125.81 117.862 127.483C116.064 129.156 115.054 131.424 115.054 133.79ZM115.054 115.951C115.054 118.317 116.064 120.585 117.862 122.258C119.66 123.931 122.099 124.871 124.642 124.871C127.185 124.871 129.623 123.931 131.422 122.258C133.22 120.585 134.23 118.317 134.23 115.951C134.23 113.586 133.22 111.317 131.422 109.644C129.623 107.972 127.185 107.032 124.642 107.032C122.099 107.032 119.66 107.972 117.862 109.644C116.064 111.317 115.054 113.586 115.054 115.951ZM115.054 98.1126C115.054 100.478 116.064 102.747 117.862 104.419C119.66 106.092 122.099 107.032 124.642 107.032C127.185 107.032 129.623 106.092 131.422 104.419C133.22 102.747 134.23 100.478 134.23 98.1126C134.23 95.747 133.22 93.4784 131.422 91.8057C129.623 90.133 127.185 89.1933 124.642 89.1933C122.099 89.1933 119.66 90.133 117.862 91.8057C116.064 93.4784 115.054 95.747 115.054 98.1126ZM115.054 80.2739C115.054 82.6395 116.064 84.9082 117.862 86.5808C119.66 88.2535 122.099 89.1933 124.642 89.1933C127.185 89.1933 129.623 88.2535 131.422 86.5808C133.22 84.9082 134.23 82.6395 134.23 80.2739C134.23 77.9084 133.22 75.6397 131.422 73.967C129.623 72.2943 127.185 71.3546 124.642 71.3546C122.099 71.3546 119.66 72.2943 117.862 73.967C116.064 75.6397 115.054 77.9084 115.054 80.2739ZM115.054 62.4353C115.054 64.8008 116.064 67.0695 117.862 68.7422C119.66 70.4149 122.099 71.3546 124.642 71.3546C127.185 71.3546 129.623 70.4149 131.422 68.7422C133.22 67.0695 134.23 64.8008 134.23 62.4353C134.23 60.0697 133.22 57.8011 131.422 56.1284C129.623 54.4557 127.185 53.5159 124.642 53.5159C122.099 53.5159 119.66 54.4557 117.862 56.1284C116.064 57.8011 115.054 60.0697 115.054 62.4353ZM115.054 44.5966C115.054 46.9622 116.064 49.2309 117.862 50.9035C119.66 52.5762 122.099 53.5159 124.642 53.5159C127.185 53.5159 129.623 52.5762 131.422 50.9035C133.22 49.2309 134.23 46.9622 134.23 44.5966C134.23 42.2311 133.22 39.9624 131.422 38.2897C129.623 36.617 127.185 35.6773 124.642 35.6773C122.099 35.6773 119.66 36.617 117.862 38.2897C116.064 39.9624 115.054 42.2311 115.054 44.5966ZM134.23 151.629C134.23 153.994 135.24 156.263 137.038 157.935C138.836 159.608 141.275 160.548 143.818 160.548C146.36 160.548 148.799 159.608 150.597 157.935C152.395 156.263 153.405 153.994 153.405 151.629C153.405 149.263 152.395 146.994 150.597 145.322C148.799 143.649 146.36 142.709 143.818 142.709C141.275 142.709 138.836 143.649 137.038 145.322C135.24 146.994 134.23 149.263 134.23 151.629ZM134.23 133.79C134.23 136.155 135.24 138.424 137.038 140.097C138.836 141.769 141.275 142.709 143.818 142.709C146.36 142.709 148.799 141.769 150.597 140.097C152.395 138.424 153.405 136.155 153.405 133.79C153.405 131.424 152.395 129.156 150.597 127.483C148.799 125.81 146.36 124.871 143.818 124.871C141.275 124.871 138.836 125.81 137.038 127.483C135.24 129.156 134.23 131.424 134.23 133.79ZM134.23 80.2739C134.23 82.6395 135.24 84.9082 137.038 86.5808C138.836 88.2535 141.275 89.1933 143.818 89.1933C146.36 89.1933 148.799 88.2535 150.597 86.5808C152.395 84.9082 153.405 82.6395 153.405 80.2739C153.405 77.9084 152.395 75.6397 150.597 73.967C148.799 72.2943 146.36 71.3546 143.818 71.3546C141.275 71.3546 138.836 72.2943 137.038 73.967C135.24 75.6397 134.23 77.9084 134.23 80.2739ZM134.23 62.4353C134.23 64.8008 135.24 67.0695 137.038 68.7422C138.836 70.4149 141.275 71.3546 143.818 71.3546C146.36 71.3546 148.799 70.4149 150.597 68.7422C152.395 67.0695 153.405 64.8008 153.405 62.4353C153.405 60.0697 152.395 57.8011 150.597 56.1284C148.799 54.4557 146.36 53.5159 143.818 53.5159C141.275 53.5159 138.836 54.4557 137.038 56.1284C135.24 57.8011 134.23 60.0697 134.23 62.4353ZM134.23 44.5966C134.23 46.9622 135.24 49.2309 137.038 50.9035C138.836 52.5762 141.275 53.5159 143.818 53.5159C146.36 53.5159 148.799 52.5762 150.597 50.9035C152.395 49.2309 153.405 46.9622 153.405 44.5966C153.405 42.2311 152.395 39.9624 150.597 38.2897C148.799 36.617 146.36 35.6773 143.818 35.6773C141.275 35.6773 138.836 36.617 137.038 38.2897C135.24 39.9624 134.23 42.2311 134.23 44.5966ZM153.405 62.4353C153.405 64.8008 154.416 67.0695 156.214 68.7422C158.012 70.4149 160.45 71.3546 162.993 71.3546C165.536 71.3546 167.975 70.4149 169.773 68.7422C171.571 67.0695 172.581 64.8008 172.581 62.4353C172.581 60.0697 171.571 57.8011 169.773 56.1284C167.975 54.4557 165.536 53.5159 162.993 53.5159C160.45 53.5159 158.012 54.4557 156.214 56.1284C154.416 57.8011 153.405 60.0697 153.405 62.4353ZM172.581 44.5966C172.581 46.9622 173.591 49.2309 175.389 50.9035C177.187 52.5762 179.626 53.5159 182.169 53.5159C184.712 53.5159 187.15 52.5762 188.949 50.9035C190.747 49.2309 191.757 46.9622 191.757 44.5966C191.757 42.2311 190.747 39.9624 188.949 38.2897C187.15 36.617 184.712 35.6773 182.169 35.6773C179.626 35.6773 177.187 36.617 175.389 38.2897C173.591 39.9624 172.581 42.2311 172.581 44.5966Z" fill="#95D3F6"/>
</svg>
